<mxfile host="app.diagrams.net" modified="2024-03-05T11:03:47.292Z" agent="Mozilla/5.0 (Windows NT 10.0; Win64; x64) AppleWebKit/537.36 (KHTML, like Gecko) Chrome/121.0.0.0 Safari/537.36 OPR/107.0.0.0" etag="2qzvx1qaDsPsiTB_ROGQ" version="24.0.1" type="device">
  <diagram id="C5RBs43oDa-KdzZeNtuy" name="Page-1">
    <mxGraphModel dx="7226" dy="1895" grid="1" gridSize="10" guides="1" tooltips="1" connect="1" arrows="1" fold="1" page="1" pageScale="1" pageWidth="827" pageHeight="1169" math="0" shadow="0">
      <root>
        <mxCell id="WIyWlLk6GJQsqaUBKTNV-0" />
        <mxCell id="WIyWlLk6GJQsqaUBKTNV-1" parent="WIyWlLk6GJQsqaUBKTNV-0" />
        <mxCell id="cbNW1Q17LAViBnScJWyJ-351" style="edgeStyle=orthogonalEdgeStyle;rounded=0;orthogonalLoop=1;jettySize=auto;html=1;entryX=1;entryY=0.75;entryDx=0;entryDy=0;startArrow=open;startFill=0;endArrow=open;endFill=0;" edge="1" parent="WIyWlLk6GJQsqaUBKTNV-1" source="cbNW1Q17LAViBnScJWyJ-117" target="cbNW1Q17LAViBnScJWyJ-335">
          <mxGeometry relative="1" as="geometry">
            <Array as="points">
              <mxPoint x="1630" y="2419" />
              <mxPoint x="1630" y="1454" />
            </Array>
          </mxGeometry>
        </mxCell>
        <mxCell id="cbNW1Q17LAViBnScJWyJ-388" style="edgeStyle=orthogonalEdgeStyle;rounded=0;orthogonalLoop=1;jettySize=auto;html=1;entryX=1;entryY=0.75;entryDx=0;entryDy=0;startArrow=open;startFill=0;endArrow=open;endFill=0;" edge="1" parent="WIyWlLk6GJQsqaUBKTNV-1" source="cbNW1Q17LAViBnScJWyJ-117" target="cbNW1Q17LAViBnScJWyJ-352">
          <mxGeometry relative="1" as="geometry">
            <Array as="points">
              <mxPoint x="1600" y="2419" />
              <mxPoint x="1600" y="1807" />
            </Array>
          </mxGeometry>
        </mxCell>
        <mxCell id="cbNW1Q17LAViBnScJWyJ-389" style="edgeStyle=orthogonalEdgeStyle;rounded=0;orthogonalLoop=1;jettySize=auto;html=1;entryX=1;entryY=0.75;entryDx=0;entryDy=0;startArrow=open;startFill=0;endArrow=open;endFill=0;" edge="1" parent="WIyWlLk6GJQsqaUBKTNV-1" source="cbNW1Q17LAViBnScJWyJ-117" target="cbNW1Q17LAViBnScJWyJ-364">
          <mxGeometry relative="1" as="geometry">
            <Array as="points">
              <mxPoint x="1570" y="2419" />
              <mxPoint x="1570" y="2167" />
            </Array>
          </mxGeometry>
        </mxCell>
        <mxCell id="cbNW1Q17LAViBnScJWyJ-390" style="edgeStyle=orthogonalEdgeStyle;rounded=0;orthogonalLoop=1;jettySize=auto;html=1;" edge="1" parent="WIyWlLk6GJQsqaUBKTNV-1" source="cbNW1Q17LAViBnScJWyJ-117" target="cbNW1Q17LAViBnScJWyJ-376">
          <mxGeometry relative="1" as="geometry">
            <Array as="points">
              <mxPoint x="1540" y="2419" />
              <mxPoint x="1540" y="2560" />
            </Array>
          </mxGeometry>
        </mxCell>
        <mxCell id="cbNW1Q17LAViBnScJWyJ-117" value="DBDriver" style="swimlane;fontStyle=2;align=center;verticalAlign=top;childLayout=stackLayout;horizontal=1;startSize=26;horizontalStack=0;resizeParent=1;resizeLast=0;collapsible=1;marginBottom=0;rounded=0;shadow=0;strokeWidth=1;" vertex="1" parent="WIyWlLk6GJQsqaUBKTNV-1">
          <mxGeometry x="1654" y="2180" width="220" height="478" as="geometry">
            <mxRectangle x="190" y="630" width="160" height="26" as="alternateBounds" />
          </mxGeometry>
        </mxCell>
        <mxCell id="cbNW1Q17LAViBnScJWyJ-118" value="- whitelist : NumberList" style="text;align=left;verticalAlign=top;spacingLeft=4;spacingRight=4;overflow=hidden;rotatable=0;points=[[0,0.5],[1,0.5]];portConstraint=eastwest;" vertex="1" parent="cbNW1Q17LAViBnScJWyJ-117">
          <mxGeometry y="26" width="220" height="26" as="geometry" />
        </mxCell>
        <mxCell id="cbNW1Q17LAViBnScJWyJ-119" value="- blacklist : NumberList" style="text;align=left;verticalAlign=top;spacingLeft=4;spacingRight=4;overflow=hidden;rotatable=0;points=[[0,0.5],[1,0.5]];portConstraint=eastwest;" vertex="1" parent="cbNW1Q17LAViBnScJWyJ-117">
          <mxGeometry y="52" width="220" height="26" as="geometry" />
        </mxCell>
        <mxCell id="cbNW1Q17LAViBnScJWyJ-120" value="- user : Email" style="text;align=left;verticalAlign=top;spacingLeft=4;spacingRight=4;overflow=hidden;rotatable=0;points=[[0,0.5],[1,0.5]];portConstraint=eastwest;rounded=0;shadow=0;html=0;" vertex="1" parent="cbNW1Q17LAViBnScJWyJ-117">
          <mxGeometry y="78" width="220" height="26" as="geometry" />
        </mxCell>
        <mxCell id="cbNW1Q17LAViBnScJWyJ-121" value="- evalMailbox : Mailbox" style="text;align=left;verticalAlign=top;spacingLeft=4;spacingRight=4;overflow=hidden;rotatable=0;points=[[0,0.5],[1,0.5]];portConstraint=eastwest;rounded=0;shadow=0;html=0;" vertex="1" parent="cbNW1Q17LAViBnScJWyJ-117">
          <mxGeometry y="104" width="220" height="26" as="geometry" />
        </mxCell>
        <mxCell id="cbNW1Q17LAViBnScJWyJ-211" value="- keyWords : Mailbox" style="text;align=left;verticalAlign=top;spacingLeft=4;spacingRight=4;overflow=hidden;rotatable=0;points=[[0,0.5],[1,0.5]];portConstraint=eastwest;rounded=0;shadow=0;html=0;" vertex="1" parent="cbNW1Q17LAViBnScJWyJ-117">
          <mxGeometry y="130" width="220" height="26" as="geometry" />
        </mxCell>
        <mxCell id="cbNW1Q17LAViBnScJWyJ-122" value="" style="line;html=1;strokeWidth=1;align=left;verticalAlign=middle;spacingTop=-1;spacingLeft=3;spacingRight=3;rotatable=0;labelPosition=right;points=[];portConstraint=eastwest;" vertex="1" parent="cbNW1Q17LAViBnScJWyJ-117">
          <mxGeometry y="156" width="220" height="8" as="geometry" />
        </mxCell>
        <mxCell id="cbNW1Q17LAViBnScJWyJ-126" value="- addToWhitelist() : void" style="text;align=left;verticalAlign=top;spacingLeft=4;spacingRight=4;overflow=hidden;rotatable=0;points=[[0,0.5],[1,0.5]];portConstraint=eastwest;rounded=0;shadow=0;html=0;" vertex="1" parent="cbNW1Q17LAViBnScJWyJ-117">
          <mxGeometry y="164" width="220" height="26" as="geometry" />
        </mxCell>
        <mxCell id="cbNW1Q17LAViBnScJWyJ-214" value="- removeFromWhitelist() : void" style="text;align=left;verticalAlign=top;spacingLeft=4;spacingRight=4;overflow=hidden;rotatable=0;points=[[0,0.5],[1,0.5]];portConstraint=eastwest;rounded=0;shadow=0;html=0;" vertex="1" parent="cbNW1Q17LAViBnScJWyJ-117">
          <mxGeometry y="190" width="220" height="26" as="geometry" />
        </mxCell>
        <mxCell id="cbNW1Q17LAViBnScJWyJ-219" value="- addToBlacklist() : void" style="text;align=left;verticalAlign=top;spacingLeft=4;spacingRight=4;overflow=hidden;rotatable=0;points=[[0,0.5],[1,0.5]];portConstraint=eastwest;rounded=0;shadow=0;html=0;" vertex="1" parent="cbNW1Q17LAViBnScJWyJ-117">
          <mxGeometry y="216" width="220" height="26" as="geometry" />
        </mxCell>
        <mxCell id="cbNW1Q17LAViBnScJWyJ-218" value="- removeFromBlacklist() : void" style="text;align=left;verticalAlign=top;spacingLeft=4;spacingRight=4;overflow=hidden;rotatable=0;points=[[0,0.5],[1,0.5]];portConstraint=eastwest;rounded=0;shadow=0;html=0;" vertex="1" parent="cbNW1Q17LAViBnScJWyJ-117">
          <mxGeometry y="242" width="220" height="26" as="geometry" />
        </mxCell>
        <mxCell id="cbNW1Q17LAViBnScJWyJ-217" value="- modifyUser() : void" style="text;align=left;verticalAlign=top;spacingLeft=4;spacingRight=4;overflow=hidden;rotatable=0;points=[[0,0.5],[1,0.5]];portConstraint=eastwest;rounded=0;shadow=0;html=0;" vertex="1" parent="cbNW1Q17LAViBnScJWyJ-117">
          <mxGeometry y="268" width="220" height="26" as="geometry" />
        </mxCell>
        <mxCell id="cbNW1Q17LAViBnScJWyJ-216" value="- addToEvalBox() : void" style="text;align=left;verticalAlign=top;spacingLeft=4;spacingRight=4;overflow=hidden;rotatable=0;points=[[0,0.5],[1,0.5]];portConstraint=eastwest;rounded=0;shadow=0;html=0;" vertex="1" parent="cbNW1Q17LAViBnScJWyJ-117">
          <mxGeometry y="294" width="220" height="26" as="geometry" />
        </mxCell>
        <mxCell id="cbNW1Q17LAViBnScJWyJ-215" value="- removeFromEvalBox() : void" style="text;align=left;verticalAlign=top;spacingLeft=4;spacingRight=4;overflow=hidden;rotatable=0;points=[[0,0.5],[1,0.5]];portConstraint=eastwest;rounded=0;shadow=0;html=0;" vertex="1" parent="cbNW1Q17LAViBnScJWyJ-117">
          <mxGeometry y="320" width="220" height="26" as="geometry" />
        </mxCell>
        <mxCell id="cbNW1Q17LAViBnScJWyJ-222" value="- addToKeyWords() : void" style="text;align=left;verticalAlign=top;spacingLeft=4;spacingRight=4;overflow=hidden;rotatable=0;points=[[0,0.5],[1,0.5]];portConstraint=eastwest;rounded=0;shadow=0;html=0;" vertex="1" parent="cbNW1Q17LAViBnScJWyJ-117">
          <mxGeometry y="346" width="220" height="26" as="geometry" />
        </mxCell>
        <mxCell id="cbNW1Q17LAViBnScJWyJ-223" value="- removeFromKeyWords() : void" style="text;align=left;verticalAlign=top;spacingLeft=4;spacingRight=4;overflow=hidden;rotatable=0;points=[[0,0.5],[1,0.5]];portConstraint=eastwest;rounded=0;shadow=0;html=0;" vertex="1" parent="cbNW1Q17LAViBnScJWyJ-117">
          <mxGeometry y="372" width="220" height="26" as="geometry" />
        </mxCell>
        <mxCell id="cbNW1Q17LAViBnScJWyJ-220" value="- copyToRealm() : void" style="text;align=left;verticalAlign=top;spacingLeft=4;spacingRight=4;overflow=hidden;rotatable=0;points=[[0,0.5],[1,0.5]];portConstraint=eastwest;rounded=0;shadow=0;html=0;" vertex="1" parent="cbNW1Q17LAViBnScJWyJ-117">
          <mxGeometry y="398" width="220" height="26" as="geometry" />
        </mxCell>
        <mxCell id="cbNW1Q17LAViBnScJWyJ-127" value="" style="line;html=1;strokeWidth=1;align=left;verticalAlign=middle;spacingTop=-1;spacingLeft=3;spacingRight=3;rotatable=0;labelPosition=right;points=[];portConstraint=eastwest;" vertex="1" parent="cbNW1Q17LAViBnScJWyJ-117">
          <mxGeometry y="424" width="220" height="8" as="geometry" />
        </mxCell>
        <mxCell id="cbNW1Q17LAViBnScJWyJ-128" value="{note: copyToRealm is inherited fromÂ &#xa;Realm library}" style="text;align=left;verticalAlign=top;spacingLeft=4;spacingRight=4;overflow=hidden;rotatable=0;points=[[0,0.5],[1,0.5]];portConstraint=eastwest;rounded=0;shadow=0;html=0;" vertex="1" parent="cbNW1Q17LAViBnScJWyJ-117">
          <mxGeometry y="432" width="220" height="46" as="geometry" />
        </mxCell>
        <mxCell id="cbNW1Q17LAViBnScJWyJ-129" value="RealmObject" style="swimlane;fontStyle=2;align=center;verticalAlign=top;childLayout=stackLayout;horizontal=1;startSize=26;horizontalStack=0;resizeParent=1;resizeLast=0;collapsible=1;marginBottom=0;rounded=0;shadow=0;strokeWidth=1;" vertex="1" parent="WIyWlLk6GJQsqaUBKTNV-1">
          <mxGeometry x="2861" y="2385" width="220" height="60" as="geometry">
            <mxRectangle x="190" y="630" width="160" height="26" as="alternateBounds" />
          </mxGeometry>
        </mxCell>
        <mxCell id="cbNW1Q17LAViBnScJWyJ-130" value="External Library" style="text;align=center;verticalAlign=top;spacingLeft=4;spacingRight=4;overflow=hidden;rotatable=0;points=[[0,0.5],[1,0.5]];portConstraint=eastwest;" vertex="1" parent="cbNW1Q17LAViBnScJWyJ-129">
          <mxGeometry y="26" width="220" height="26" as="geometry" />
        </mxCell>
        <mxCell id="cbNW1Q17LAViBnScJWyJ-310" style="edgeStyle=orthogonalEdgeStyle;rounded=0;orthogonalLoop=1;jettySize=auto;html=1;endArrow=open;endFill=0;" edge="1" parent="WIyWlLk6GJQsqaUBKTNV-1" source="cbNW1Q17LAViBnScJWyJ-131" target="cbNW1Q17LAViBnScJWyJ-117">
          <mxGeometry relative="1" as="geometry">
            <Array as="points">
              <mxPoint x="1991" y="2266" />
              <mxPoint x="1991" y="2266" />
            </Array>
          </mxGeometry>
        </mxCell>
        <mxCell id="cbNW1Q17LAViBnScJWyJ-313" style="edgeStyle=orthogonalEdgeStyle;rounded=0;orthogonalLoop=1;jettySize=auto;html=1;endArrow=block;endFill=0;endSize=15;" edge="1" parent="WIyWlLk6GJQsqaUBKTNV-1" source="cbNW1Q17LAViBnScJWyJ-131" target="cbNW1Q17LAViBnScJWyJ-129">
          <mxGeometry relative="1" as="geometry" />
        </mxCell>
        <mxCell id="cbNW1Q17LAViBnScJWyJ-131" value="NumberListÂ " style="swimlane;fontStyle=2;align=center;verticalAlign=top;childLayout=stackLayout;horizontal=1;startSize=26;horizontalStack=0;resizeParent=1;resizeLast=0;collapsible=1;marginBottom=0;rounded=0;shadow=0;strokeWidth=1;" vertex="1" parent="WIyWlLk6GJQsqaUBKTNV-1">
          <mxGeometry x="2361" y="2210" width="220" height="112" as="geometry">
            <mxRectangle x="190" y="630" width="160" height="26" as="alternateBounds" />
          </mxGeometry>
        </mxCell>
        <mxCell id="cbNW1Q17LAViBnScJWyJ-132" value="- numbers[] : int" style="text;align=left;verticalAlign=top;spacingLeft=4;spacingRight=4;overflow=hidden;rotatable=0;points=[[0,0.5],[1,0.5]];portConstraint=eastwest;" vertex="1" parent="cbNW1Q17LAViBnScJWyJ-131">
          <mxGeometry y="26" width="220" height="26" as="geometry" />
        </mxCell>
        <mxCell id="cbNW1Q17LAViBnScJWyJ-133" value="" style="line;html=1;strokeWidth=1;align=left;verticalAlign=middle;spacingTop=-1;spacingLeft=3;spacingRight=3;rotatable=0;labelPosition=right;points=[];portConstraint=eastwest;" vertex="1" parent="cbNW1Q17LAViBnScJWyJ-131">
          <mxGeometry y="52" width="220" height="8" as="geometry" />
        </mxCell>
        <mxCell id="cbNW1Q17LAViBnScJWyJ-134" value="- addToList() : void" style="text;align=left;verticalAlign=top;spacingLeft=4;spacingRight=4;overflow=hidden;rotatable=0;points=[[0,0.5],[1,0.5]];portConstraint=eastwest;" vertex="1" parent="cbNW1Q17LAViBnScJWyJ-131">
          <mxGeometry y="60" width="220" height="26" as="geometry" />
        </mxCell>
        <mxCell id="cbNW1Q17LAViBnScJWyJ-135" value="- removeFromList() : void" style="text;align=left;verticalAlign=top;spacingLeft=4;spacingRight=4;overflow=hidden;rotatable=0;points=[[0,0.5],[1,0.5]];portConstraint=eastwest;rounded=0;shadow=0;html=0;" vertex="1" parent="cbNW1Q17LAViBnScJWyJ-131">
          <mxGeometry y="86" width="220" height="26" as="geometry" />
        </mxCell>
        <mxCell id="cbNW1Q17LAViBnScJWyJ-307" style="edgeStyle=orthogonalEdgeStyle;rounded=0;orthogonalLoop=1;jettySize=auto;html=1;endArrow=open;endFill=0;" edge="1" parent="WIyWlLk6GJQsqaUBKTNV-1" source="cbNW1Q17LAViBnScJWyJ-136" target="cbNW1Q17LAViBnScJWyJ-117">
          <mxGeometry relative="1" as="geometry" />
        </mxCell>
        <mxCell id="cbNW1Q17LAViBnScJWyJ-136" value="User" style="swimlane;fontStyle=2;align=center;verticalAlign=top;childLayout=stackLayout;horizontal=1;startSize=26;horizontalStack=0;resizeParent=1;resizeLast=0;collapsible=1;marginBottom=0;rounded=0;shadow=0;strokeWidth=1;" vertex="1" parent="WIyWlLk6GJQsqaUBKTNV-1">
          <mxGeometry x="2361" y="2376" width="220" height="86" as="geometry">
            <mxRectangle x="190" y="630" width="160" height="26" as="alternateBounds" />
          </mxGeometry>
        </mxCell>
        <mxCell id="cbNW1Q17LAViBnScJWyJ-137" value="- email : String" style="text;align=left;verticalAlign=top;spacingLeft=4;spacingRight=4;overflow=hidden;rotatable=0;points=[[0,0.5],[1,0.5]];portConstraint=eastwest;" vertex="1" parent="cbNW1Q17LAViBnScJWyJ-136">
          <mxGeometry y="26" width="220" height="26" as="geometry" />
        </mxCell>
        <mxCell id="cbNW1Q17LAViBnScJWyJ-138" value="" style="line;html=1;strokeWidth=1;align=left;verticalAlign=middle;spacingTop=-1;spacingLeft=3;spacingRight=3;rotatable=0;labelPosition=right;points=[];portConstraint=eastwest;" vertex="1" parent="cbNW1Q17LAViBnScJWyJ-136">
          <mxGeometry y="52" width="220" height="8" as="geometry" />
        </mxCell>
        <mxCell id="cbNW1Q17LAViBnScJWyJ-139" value="- modifyEmail() : void" style="text;align=left;verticalAlign=top;spacingLeft=4;spacingRight=4;overflow=hidden;rotatable=0;points=[[0,0.5],[1,0.5]];portConstraint=eastwest;" vertex="1" parent="cbNW1Q17LAViBnScJWyJ-136">
          <mxGeometry y="60" width="220" height="26" as="geometry" />
        </mxCell>
        <mxCell id="cbNW1Q17LAViBnScJWyJ-309" style="edgeStyle=orthogonalEdgeStyle;rounded=0;orthogonalLoop=1;jettySize=auto;html=1;endArrow=open;endFill=0;" edge="1" parent="WIyWlLk6GJQsqaUBKTNV-1" source="cbNW1Q17LAViBnScJWyJ-141" target="cbNW1Q17LAViBnScJWyJ-117">
          <mxGeometry relative="1" as="geometry">
            <Array as="points">
              <mxPoint x="1991" y="2626" />
              <mxPoint x="1991" y="2626" />
            </Array>
          </mxGeometry>
        </mxCell>
        <mxCell id="cbNW1Q17LAViBnScJWyJ-311" style="edgeStyle=orthogonalEdgeStyle;rounded=0;orthogonalLoop=1;jettySize=auto;html=1;endArrow=block;endFill=0;strokeWidth=1;endSize=15;" edge="1" parent="WIyWlLk6GJQsqaUBKTNV-1" source="cbNW1Q17LAViBnScJWyJ-141" target="cbNW1Q17LAViBnScJWyJ-129">
          <mxGeometry relative="1" as="geometry" />
        </mxCell>
        <mxCell id="cbNW1Q17LAViBnScJWyJ-141" value="Mailbox" style="swimlane;fontStyle=2;align=center;verticalAlign=top;childLayout=stackLayout;horizontal=1;startSize=26;horizontalStack=0;resizeParent=1;resizeLast=0;collapsible=1;marginBottom=0;rounded=0;shadow=0;strokeWidth=1;" vertex="1" parent="WIyWlLk6GJQsqaUBKTNV-1">
          <mxGeometry x="2351" y="2570" width="220" height="112" as="geometry">
            <mxRectangle x="190" y="630" width="160" height="26" as="alternateBounds" />
          </mxGeometry>
        </mxCell>
        <mxCell id="cbNW1Q17LAViBnScJWyJ-142" value="- messages[] : String" style="text;align=left;verticalAlign=top;spacingLeft=4;spacingRight=4;overflow=hidden;rotatable=0;points=[[0,0.5],[1,0.5]];portConstraint=eastwest;" vertex="1" parent="cbNW1Q17LAViBnScJWyJ-141">
          <mxGeometry y="26" width="220" height="26" as="geometry" />
        </mxCell>
        <mxCell id="cbNW1Q17LAViBnScJWyJ-143" value="" style="line;html=1;strokeWidth=1;align=left;verticalAlign=middle;spacingTop=-1;spacingLeft=3;spacingRight=3;rotatable=0;labelPosition=right;points=[];portConstraint=eastwest;" vertex="1" parent="cbNW1Q17LAViBnScJWyJ-141">
          <mxGeometry y="52" width="220" height="8" as="geometry" />
        </mxCell>
        <mxCell id="cbNW1Q17LAViBnScJWyJ-144" value="- addMessage() : void" style="text;align=left;verticalAlign=top;spacingLeft=4;spacingRight=4;overflow=hidden;rotatable=0;points=[[0,0.5],[1,0.5]];portConstraint=eastwest;" vertex="1" parent="cbNW1Q17LAViBnScJWyJ-141">
          <mxGeometry y="60" width="220" height="26" as="geometry" />
        </mxCell>
        <mxCell id="cbNW1Q17LAViBnScJWyJ-145" value="- removeMessage() : void" style="text;align=left;verticalAlign=top;spacingLeft=4;spacingRight=4;overflow=hidden;rotatable=0;points=[[0,0.5],[1,0.5]];portConstraint=eastwest;rounded=0;shadow=0;html=0;" vertex="1" parent="cbNW1Q17LAViBnScJWyJ-141">
          <mxGeometry y="86" width="220" height="26" as="geometry" />
        </mxCell>
        <mxCell id="cbNW1Q17LAViBnScJWyJ-151" value="&lt;font style=&quot;font-size: 23px;&quot;&gt;DATABASE&lt;/font&gt;" style="rounded=0;whiteSpace=wrap;html=1;fillColor=none;" vertex="1" parent="WIyWlLk6GJQsqaUBKTNV-1">
          <mxGeometry x="2180" y="2000" width="290" height="60" as="geometry" />
        </mxCell>
        <mxCell id="cbNW1Q17LAViBnScJWyJ-152" value="&lt;span style=&quot;font-size: 23px;&quot;&gt;SPAM/HAM AI&lt;/span&gt;" style="rounded=0;whiteSpace=wrap;html=1;fillColor=none;" vertex="1" parent="WIyWlLk6GJQsqaUBKTNV-1">
          <mxGeometry x="-1230" y="2890" width="320" height="60" as="geometry" />
        </mxCell>
        <mxCell id="cbNW1Q17LAViBnScJWyJ-153" value="Mixer" style="swimlane;fontStyle=2;align=center;verticalAlign=top;childLayout=stackLayout;horizontal=1;startSize=26;horizontalStack=0;resizeParent=1;resizeLast=0;collapsible=1;marginBottom=0;rounded=0;shadow=0;strokeWidth=1;" vertex="1" parent="WIyWlLk6GJQsqaUBKTNV-1">
          <mxGeometry x="-1390" y="3038" width="220" height="112" as="geometry">
            <mxRectangle x="190" y="630" width="160" height="26" as="alternateBounds" />
          </mxGeometry>
        </mxCell>
        <mxCell id="cbNW1Q17LAViBnScJWyJ-165" value="Â " style="text;align=left;verticalAlign=top;spacingLeft=4;spacingRight=4;overflow=hidden;rotatable=0;points=[[0,0.5],[1,0.5]];portConstraint=eastwest;rounded=0;shadow=0;html=0;" vertex="1" parent="cbNW1Q17LAViBnScJWyJ-153">
          <mxGeometry y="26" width="220" height="26" as="geometry" />
        </mxCell>
        <mxCell id="cbNW1Q17LAViBnScJWyJ-158" value="" style="line;html=1;strokeWidth=1;align=left;verticalAlign=middle;spacingTop=-1;spacingLeft=3;spacingRight=3;rotatable=0;labelPosition=right;points=[];portConstraint=eastwest;" vertex="1" parent="cbNW1Q17LAViBnScJWyJ-153">
          <mxGeometry y="52" width="220" height="8" as="geometry" />
        </mxCell>
        <mxCell id="cbNW1Q17LAViBnScJWyJ-159" value="- mix() : String[]" style="text;align=left;verticalAlign=top;spacingLeft=4;spacingRight=4;overflow=hidden;rotatable=0;points=[[0,0.5],[1,0.5]];portConstraint=eastwest;fontStyle=4" vertex="1" parent="cbNW1Q17LAViBnScJWyJ-153">
          <mxGeometry y="60" width="220" height="26" as="geometry" />
        </mxCell>
        <mxCell id="cbNW1Q17LAViBnScJWyJ-160" value="+ mixing() : String[]" style="text;align=left;verticalAlign=top;spacingLeft=4;spacingRight=4;overflow=hidden;rotatable=0;points=[[0,0.5],[1,0.5]];portConstraint=eastwest;rounded=0;shadow=0;html=0;fontStyle=4" vertex="1" parent="cbNW1Q17LAViBnScJWyJ-153">
          <mxGeometry y="86" width="220" height="26" as="geometry" />
        </mxCell>
        <mxCell id="cbNW1Q17LAViBnScJWyJ-166" value="LogisticRegression" style="swimlane;fontStyle=2;align=center;verticalAlign=top;childLayout=stackLayout;horizontal=1;startSize=26;horizontalStack=0;resizeParent=1;resizeLast=0;collapsible=1;marginBottom=0;rounded=0;shadow=0;strokeWidth=1;" vertex="1" parent="WIyWlLk6GJQsqaUBKTNV-1">
          <mxGeometry x="-1040" y="3064" width="220" height="294" as="geometry">
            <mxRectangle x="190" y="630" width="160" height="26" as="alternateBounds" />
          </mxGeometry>
        </mxCell>
        <mxCell id="cbNW1Q17LAViBnScJWyJ-167" value="features : double[]" style="text;align=left;verticalAlign=top;spacingLeft=4;spacingRight=4;overflow=hidden;rotatable=0;points=[[0,0.5],[1,0.5]];portConstraint=eastwest;rounded=0;shadow=0;html=0;fontStyle=4" vertex="1" parent="cbNW1Q17LAViBnScJWyJ-166">
          <mxGeometry y="26" width="220" height="26" as="geometry" />
        </mxCell>
        <mxCell id="cbNW1Q17LAViBnScJWyJ-172" value="target : int" style="text;align=left;verticalAlign=top;spacingLeft=4;spacingRight=4;overflow=hidden;rotatable=0;points=[[0,0.5],[1,0.5]];portConstraint=eastwest;rounded=0;shadow=0;html=0;fontStyle=4" vertex="1" parent="cbNW1Q17LAViBnScJWyJ-166">
          <mxGeometry y="52" width="220" height="26" as="geometry" />
        </mxCell>
        <mxCell id="cbNW1Q17LAViBnScJWyJ-173" value="weight : double" style="text;align=left;verticalAlign=top;spacingLeft=4;spacingRight=4;overflow=hidden;rotatable=0;points=[[0,0.5],[1,0.5]];portConstraint=eastwest;rounded=0;shadow=0;html=0;fontStyle=4" vertex="1" parent="cbNW1Q17LAViBnScJWyJ-166">
          <mxGeometry y="78" width="220" height="26" as="geometry" />
        </mxCell>
        <mxCell id="cbNW1Q17LAViBnScJWyJ-168" value="" style="line;html=1;strokeWidth=1;align=left;verticalAlign=middle;spacingTop=-1;spacingLeft=3;spacingRight=3;rotatable=0;labelPosition=right;points=[];portConstraint=eastwest;" vertex="1" parent="cbNW1Q17LAViBnScJWyJ-166">
          <mxGeometry y="104" width="220" height="8" as="geometry" />
        </mxCell>
        <mxCell id="cbNW1Q17LAViBnScJWyJ-169" value="+ Start() : void" style="text;align=left;verticalAlign=top;spacingLeft=4;spacingRight=4;overflow=hidden;rotatable=0;points=[[0,0.5],[1,0.5]];portConstraint=eastwest;fontStyle=4" vertex="1" parent="cbNW1Q17LAViBnScJWyJ-166">
          <mxGeometry y="112" width="220" height="26" as="geometry" />
        </mxCell>
        <mxCell id="cbNW1Q17LAViBnScJWyJ-170" value="+ analyzeMessage() : double" style="text;align=left;verticalAlign=top;spacingLeft=4;spacingRight=4;overflow=hidden;rotatable=0;points=[[0,0.5],[1,0.5]];portConstraint=eastwest;rounded=0;shadow=0;html=0;fontStyle=4" vertex="1" parent="cbNW1Q17LAViBnScJWyJ-166">
          <mxGeometry y="138" width="220" height="26" as="geometry" />
        </mxCell>
        <mxCell id="cbNW1Q17LAViBnScJWyJ-174" value="+ dotProduct() : double" style="text;align=left;verticalAlign=top;spacingLeft=4;spacingRight=4;overflow=hidden;rotatable=0;points=[[0,0.5],[1,0.5]];portConstraint=eastwest;rounded=0;shadow=0;html=0;fontStyle=4" vertex="1" parent="cbNW1Q17LAViBnScJWyJ-166">
          <mxGeometry y="164" width="220" height="26" as="geometry" />
        </mxCell>
        <mxCell id="cbNW1Q17LAViBnScJWyJ-177" value="+ sigmoid() : double" style="text;align=left;verticalAlign=top;spacingLeft=4;spacingRight=4;overflow=hidden;rotatable=0;points=[[0,0.5],[1,0.5]];portConstraint=eastwest;rounded=0;shadow=0;html=0;fontStyle=4" vertex="1" parent="cbNW1Q17LAViBnScJWyJ-166">
          <mxGeometry y="190" width="220" height="26" as="geometry" />
        </mxCell>
        <mxCell id="cbNW1Q17LAViBnScJWyJ-176" value="+ predictClassify() : int" style="text;align=left;verticalAlign=top;spacingLeft=4;spacingRight=4;overflow=hidden;rotatable=0;points=[[0,0.5],[1,0.5]];portConstraint=eastwest;rounded=0;shadow=0;html=0;fontStyle=4" vertex="1" parent="cbNW1Q17LAViBnScJWyJ-166">
          <mxGeometry y="216" width="220" height="26" as="geometry" />
        </mxCell>
        <mxCell id="cbNW1Q17LAViBnScJWyJ-178" value="+ postTrainingTest() : void" style="text;align=left;verticalAlign=top;spacingLeft=4;spacingRight=4;overflow=hidden;rotatable=0;points=[[0,0.5],[1,0.5]];portConstraint=eastwest;rounded=0;shadow=0;html=0;fontStyle=4" vertex="1" parent="cbNW1Q17LAViBnScJWyJ-166">
          <mxGeometry y="242" width="220" height="26" as="geometry" />
        </mxCell>
        <mxCell id="cbNW1Q17LAViBnScJWyJ-175" value="+ tested() : int" style="text;align=left;verticalAlign=top;spacingLeft=4;spacingRight=4;overflow=hidden;rotatable=0;points=[[0,0.5],[1,0.5]];portConstraint=eastwest;rounded=0;shadow=0;html=0;fontStyle=4" vertex="1" parent="cbNW1Q17LAViBnScJWyJ-166">
          <mxGeometry y="268" width="220" height="26" as="geometry" />
        </mxCell>
        <mxCell id="cbNW1Q17LAViBnScJWyJ-179" style="edgeStyle=orthogonalEdgeStyle;rounded=0;orthogonalLoop=1;jettySize=auto;html=1;entryX=-0.005;entryY=0.05;entryDx=0;entryDy=0;entryPerimeter=0;endArrow=open;endFill=0;" edge="1" parent="WIyWlLk6GJQsqaUBKTNV-1" source="cbNW1Q17LAViBnScJWyJ-165" target="cbNW1Q17LAViBnScJWyJ-166">
          <mxGeometry relative="1" as="geometry" />
        </mxCell>
        <mxCell id="cbNW1Q17LAViBnScJWyJ-224" value="&lt;font style=&quot;font-size: 23px;&quot;&gt;INTERFACE&lt;/font&gt;" style="rounded=0;whiteSpace=wrap;html=1;fillColor=none;" vertex="1" parent="WIyWlLk6GJQsqaUBKTNV-1">
          <mxGeometry x="-190" y="1560" width="290" height="60" as="geometry" />
        </mxCell>
        <mxCell id="cbNW1Q17LAViBnScJWyJ-231" value="MainActivity" style="swimlane;fontStyle=2;align=center;verticalAlign=top;childLayout=stackLayout;horizontal=1;startSize=26;horizontalStack=0;resizeParent=1;resizeLast=0;collapsible=1;marginBottom=0;rounded=0;shadow=0;strokeWidth=1;" vertex="1" parent="WIyWlLk6GJQsqaUBKTNV-1">
          <mxGeometry x="-80" y="2010" width="240" height="302" as="geometry">
            <mxRectangle x="190" y="630" width="160" height="26" as="alternateBounds" />
          </mxGeometry>
        </mxCell>
        <mxCell id="cbNW1Q17LAViBnScJWyJ-302" value="Â " style="text;align=left;verticalAlign=top;spacingLeft=4;spacingRight=4;overflow=hidden;rotatable=0;points=[[0,0.5],[1,0.5]];portConstraint=eastwest;rounded=0;shadow=0;html=0;" vertex="1" parent="cbNW1Q17LAViBnScJWyJ-231">
          <mxGeometry y="26" width="240" height="26" as="geometry" />
        </mxCell>
        <mxCell id="cbNW1Q17LAViBnScJWyJ-235" value="" style="line;html=1;strokeWidth=1;align=left;verticalAlign=middle;spacingTop=-1;spacingLeft=3;spacingRight=3;rotatable=0;labelPosition=right;points=[];portConstraint=eastwest;" vertex="1" parent="cbNW1Q17LAViBnScJWyJ-231">
          <mxGeometry y="52" width="240" height="8" as="geometry" />
        </mxCell>
        <mxCell id="cbNW1Q17LAViBnScJWyJ-236" value="messageListener() : void &lt;&lt;coroutine&gt;&gt;" style="text;align=left;verticalAlign=top;spacingLeft=4;spacingRight=4;overflow=hidden;rotatable=0;points=[[0,0.5],[1,0.5]];portConstraint=eastwest;fontStyle=0" vertex="1" parent="cbNW1Q17LAViBnScJWyJ-231">
          <mxGeometry y="60" width="240" height="26" as="geometry" />
        </mxCell>
        <mxCell id="cbNW1Q17LAViBnScJWyJ-301" value="blacklistButton() : void" style="text;align=left;verticalAlign=top;spacingLeft=4;spacingRight=4;overflow=hidden;rotatable=0;points=[[0,0.5],[1,0.5]];portConstraint=eastwest;fontStyle=0" vertex="1" parent="cbNW1Q17LAViBnScJWyJ-231">
          <mxGeometry y="86" width="240" height="26" as="geometry" />
        </mxCell>
        <mxCell id="cbNW1Q17LAViBnScJWyJ-304" value="whitelistButton() : void" style="text;align=left;verticalAlign=top;spacingLeft=4;spacingRight=4;overflow=hidden;rotatable=0;points=[[0,0.5],[1,0.5]];portConstraint=eastwest;fontStyle=0" vertex="1" parent="cbNW1Q17LAViBnScJWyJ-231">
          <mxGeometry y="112" width="240" height="26" as="geometry" />
        </mxCell>
        <mxCell id="cbNW1Q17LAViBnScJWyJ-303" value="evalMailboxButton() : void" style="text;align=left;verticalAlign=top;spacingLeft=4;spacingRight=4;overflow=hidden;rotatable=0;points=[[0,0.5],[1,0.5]];portConstraint=eastwest;fontStyle=0" vertex="1" parent="cbNW1Q17LAViBnScJWyJ-231">
          <mxGeometry y="138" width="240" height="26" as="geometry" />
        </mxCell>
        <mxCell id="cbNW1Q17LAViBnScJWyJ-305" value="evalMailboxButton() : void" style="text;align=left;verticalAlign=top;spacingLeft=4;spacingRight=4;overflow=hidden;rotatable=0;points=[[0,0.5],[1,0.5]];portConstraint=eastwest;fontStyle=0" vertex="1" parent="cbNW1Q17LAViBnScJWyJ-231">
          <mxGeometry y="164" width="240" height="26" as="geometry" />
        </mxCell>
        <mxCell id="cbNW1Q17LAViBnScJWyJ-251" value="&lt;span style=&quot;font-size: 23px;&quot;&gt;GPT FILTER&lt;/span&gt;" style="rounded=0;whiteSpace=wrap;html=1;fillColor=none;" vertex="1" parent="WIyWlLk6GJQsqaUBKTNV-1">
          <mxGeometry x="-1110" y="3530" width="320" height="60" as="geometry" />
        </mxCell>
        <mxCell id="cbNW1Q17LAViBnScJWyJ-289" style="edgeStyle=orthogonalEdgeStyle;rounded=0;orthogonalLoop=1;jettySize=auto;html=1;entryX=0;entryY=0.5;entryDx=0;entryDy=0;endArrow=open;endFill=0;" edge="1" parent="WIyWlLk6GJQsqaUBKTNV-1" source="cbNW1Q17LAViBnScJWyJ-258" target="cbNW1Q17LAViBnScJWyJ-285">
          <mxGeometry relative="1" as="geometry" />
        </mxCell>
        <mxCell id="cbNW1Q17LAViBnScJWyJ-258" value="GPTFilter" style="swimlane;fontStyle=2;align=center;verticalAlign=top;childLayout=stackLayout;horizontal=1;startSize=26;horizontalStack=0;resizeParent=1;resizeLast=0;collapsible=1;marginBottom=0;rounded=0;shadow=0;strokeWidth=1;" vertex="1" parent="WIyWlLk6GJQsqaUBKTNV-1">
          <mxGeometry x="-790" y="3660" width="220" height="138" as="geometry">
            <mxRectangle x="190" y="630" width="160" height="26" as="alternateBounds" />
          </mxGeometry>
        </mxCell>
        <mxCell id="cbNW1Q17LAViBnScJWyJ-259" value="- APIKey : String" style="text;align=left;verticalAlign=top;spacingLeft=4;spacingRight=4;overflow=hidden;rotatable=0;points=[[0,0.5],[1,0.5]];portConstraint=eastwest;rounded=0;shadow=0;html=0;fontStyle=0" vertex="1" parent="cbNW1Q17LAViBnScJWyJ-258">
          <mxGeometry y="26" width="220" height="26" as="geometry" />
        </mxCell>
        <mxCell id="cbNW1Q17LAViBnScJWyJ-260" value="- client : OpenAI" style="text;align=left;verticalAlign=top;spacingLeft=4;spacingRight=4;overflow=hidden;rotatable=0;points=[[0,0.5],[1,0.5]];portConstraint=eastwest;rounded=0;shadow=0;html=0;fontStyle=0" vertex="1" parent="cbNW1Q17LAViBnScJWyJ-258">
          <mxGeometry y="52" width="220" height="26" as="geometry" />
        </mxCell>
        <mxCell id="cbNW1Q17LAViBnScJWyJ-262" value="" style="line;html=1;strokeWidth=1;align=left;verticalAlign=middle;spacingTop=-1;spacingLeft=3;spacingRight=3;rotatable=0;labelPosition=right;points=[];portConstraint=eastwest;" vertex="1" parent="cbNW1Q17LAViBnScJWyJ-258">
          <mxGeometry y="78" width="220" height="8" as="geometry" />
        </mxCell>
        <mxCell id="cbNW1Q17LAViBnScJWyJ-263" value="- generateCompletion() : String" style="text;align=left;verticalAlign=top;spacingLeft=4;spacingRight=4;overflow=hidden;rotatable=0;points=[[0,0.5],[1,0.5]];portConstraint=eastwest;fontStyle=0" vertex="1" parent="cbNW1Q17LAViBnScJWyJ-258">
          <mxGeometry y="86" width="220" height="26" as="geometry" />
        </mxCell>
        <mxCell id="cbNW1Q17LAViBnScJWyJ-288" value="- completionToInt() : int" style="text;align=left;verticalAlign=top;spacingLeft=4;spacingRight=4;overflow=hidden;rotatable=0;points=[[0,0.5],[1,0.5]];portConstraint=eastwest;fontStyle=0" vertex="1" parent="cbNW1Q17LAViBnScJWyJ-258">
          <mxGeometry y="112" width="220" height="26" as="geometry" />
        </mxCell>
        <mxCell id="cbNW1Q17LAViBnScJWyJ-281" style="edgeStyle=orthogonalEdgeStyle;rounded=0;orthogonalLoop=1;jettySize=auto;html=1;endArrow=none;endFill=0;endSize=15;startArrow=block;startFill=0;targetPerimeterSpacing=0;startSize=15;" edge="1" parent="WIyWlLk6GJQsqaUBKTNV-1" source="cbNW1Q17LAViBnScJWyJ-278" target="cbNW1Q17LAViBnScJWyJ-260">
          <mxGeometry relative="1" as="geometry" />
        </mxCell>
        <mxCell id="cbNW1Q17LAViBnScJWyJ-278" value="openAI" style="swimlane;fontStyle=2;align=center;verticalAlign=top;childLayout=stackLayout;horizontal=1;startSize=26;horizontalStack=0;resizeParent=1;resizeLast=0;collapsible=1;marginBottom=0;rounded=0;shadow=0;strokeWidth=1;" vertex="1" parent="WIyWlLk6GJQsqaUBKTNV-1">
          <mxGeometry x="-1140" y="3695" width="220" height="60" as="geometry">
            <mxRectangle x="190" y="630" width="160" height="26" as="alternateBounds" />
          </mxGeometry>
        </mxCell>
        <mxCell id="cbNW1Q17LAViBnScJWyJ-279" value="External Library" style="text;align=center;verticalAlign=top;spacingLeft=4;spacingRight=4;overflow=hidden;rotatable=0;points=[[0,0.5],[1,0.5]];portConstraint=eastwest;" vertex="1" parent="cbNW1Q17LAViBnScJWyJ-278">
          <mxGeometry y="26" width="220" height="26" as="geometry" />
        </mxCell>
        <mxCell id="cbNW1Q17LAViBnScJWyJ-333" style="edgeStyle=orthogonalEdgeStyle;rounded=0;orthogonalLoop=1;jettySize=auto;html=1;endArrow=open;endFill=0;startArrow=open;startFill=0;" edge="1" parent="WIyWlLk6GJQsqaUBKTNV-1" source="cbNW1Q17LAViBnScJWyJ-282" target="cbNW1Q17LAViBnScJWyJ-231">
          <mxGeometry relative="1" as="geometry" />
        </mxCell>
        <mxCell id="cbNW1Q17LAViBnScJWyJ-282" value="FilterDriver" style="swimlane;fontStyle=2;align=center;verticalAlign=top;childLayout=stackLayout;horizontal=1;startSize=26;horizontalStack=0;resizeParent=1;resizeLast=0;collapsible=1;marginBottom=0;rounded=0;shadow=0;strokeWidth=1;" vertex="1" parent="WIyWlLk6GJQsqaUBKTNV-1">
          <mxGeometry x="-360" y="2926" width="220" height="138" as="geometry">
            <mxRectangle x="190" y="630" width="160" height="26" as="alternateBounds" />
          </mxGeometry>
        </mxCell>
        <mxCell id="cbNW1Q17LAViBnScJWyJ-283" value="- ourLRFilter : LogisticRegression" style="text;align=left;verticalAlign=top;spacingLeft=4;spacingRight=4;overflow=hidden;rotatable=0;points=[[0,0.5],[1,0.5]];portConstraint=eastwest;rounded=0;shadow=0;html=0;fontStyle=0" vertex="1" parent="cbNW1Q17LAViBnScJWyJ-282">
          <mxGeometry y="26" width="220" height="26" as="geometry" />
        </mxCell>
        <mxCell id="cbNW1Q17LAViBnScJWyJ-287" value="- ourGPTFIlter : GPTFilter" style="text;align=left;verticalAlign=top;spacingLeft=4;spacingRight=4;overflow=hidden;rotatable=0;points=[[0,0.5],[1,0.5]];portConstraint=eastwest;rounded=0;shadow=0;html=0;fontStyle=0" vertex="1" parent="cbNW1Q17LAViBnScJWyJ-282">
          <mxGeometry y="52" width="220" height="26" as="geometry" />
        </mxCell>
        <mxCell id="cbNW1Q17LAViBnScJWyJ-396" value="- ourKeywordFilter : KeywordFilter" style="text;align=left;verticalAlign=top;spacingLeft=4;spacingRight=4;overflow=hidden;rotatable=0;points=[[0,0.5],[1,0.5]];portConstraint=eastwest;rounded=0;shadow=0;html=0;fontStyle=0" vertex="1" parent="cbNW1Q17LAViBnScJWyJ-282">
          <mxGeometry y="78" width="220" height="26" as="geometry" />
        </mxCell>
        <mxCell id="cbNW1Q17LAViBnScJWyJ-284" value="" style="line;html=1;strokeWidth=1;align=left;verticalAlign=middle;spacingTop=-1;spacingLeft=3;spacingRight=3;rotatable=0;labelPosition=right;points=[];portConstraint=eastwest;" vertex="1" parent="cbNW1Q17LAViBnScJWyJ-282">
          <mxGeometry y="104" width="220" height="8" as="geometry" />
        </mxCell>
        <mxCell id="cbNW1Q17LAViBnScJWyJ-285" value="- validChecker() : String" style="text;align=left;verticalAlign=top;spacingLeft=4;spacingRight=4;overflow=hidden;rotatable=0;points=[[0,0.5],[1,0.5]];portConstraint=eastwest;fontStyle=0" vertex="1" parent="cbNW1Q17LAViBnScJWyJ-282">
          <mxGeometry y="112" width="220" height="26" as="geometry" />
        </mxCell>
        <mxCell id="cbNW1Q17LAViBnScJWyJ-290" style="edgeStyle=orthogonalEdgeStyle;rounded=0;orthogonalLoop=1;jettySize=auto;html=1;entryX=-0.005;entryY=0.115;entryDx=0;entryDy=0;entryPerimeter=0;endArrow=open;endFill=0;" edge="1" parent="WIyWlLk6GJQsqaUBKTNV-1" source="cbNW1Q17LAViBnScJWyJ-166" target="cbNW1Q17LAViBnScJWyJ-287">
          <mxGeometry relative="1" as="geometry" />
        </mxCell>
        <mxCell id="cbNW1Q17LAViBnScJWyJ-334" style="edgeStyle=orthogonalEdgeStyle;rounded=0;orthogonalLoop=1;jettySize=auto;html=1;startArrow=open;startFill=0;endArrow=open;endFill=0;" edge="1" parent="WIyWlLk6GJQsqaUBKTNV-1" source="cbNW1Q17LAViBnScJWyJ-291" target="cbNW1Q17LAViBnScJWyJ-231">
          <mxGeometry relative="1" as="geometry">
            <Array as="points">
              <mxPoint x="-100" y="2140" />
              <mxPoint x="-100" y="2140" />
            </Array>
          </mxGeometry>
        </mxCell>
        <mxCell id="cbNW1Q17LAViBnScJWyJ-291" value="activity_main.xml" style="swimlane;fontStyle=2;align=center;verticalAlign=top;childLayout=stackLayout;horizontal=1;startSize=26;horizontalStack=0;resizeParent=1;resizeLast=0;collapsible=1;marginBottom=0;rounded=0;shadow=0;strokeWidth=1;" vertex="1" parent="WIyWlLk6GJQsqaUBKTNV-1">
          <mxGeometry x="-390" y="2110" width="220" height="60" as="geometry">
            <mxRectangle x="190" y="630" width="160" height="26" as="alternateBounds" />
          </mxGeometry>
        </mxCell>
        <mxCell id="cbNW1Q17LAViBnScJWyJ-292" value="XML formatting document" style="text;align=center;verticalAlign=top;spacingLeft=4;spacingRight=4;overflow=hidden;rotatable=0;points=[[0,0.5],[1,0.5]];portConstraint=eastwest;" vertex="1" parent="cbNW1Q17LAViBnScJWyJ-291">
          <mxGeometry y="26" width="220" height="26" as="geometry" />
        </mxCell>
        <mxCell id="cbNW1Q17LAViBnScJWyJ-312" style="edgeStyle=orthogonalEdgeStyle;rounded=0;orthogonalLoop=1;jettySize=auto;html=1;endArrow=block;endFill=0;endSize=15;" edge="1" parent="WIyWlLk6GJQsqaUBKTNV-1" source="cbNW1Q17LAViBnScJWyJ-137" target="cbNW1Q17LAViBnScJWyJ-129">
          <mxGeometry relative="1" as="geometry" />
        </mxCell>
        <mxCell id="cbNW1Q17LAViBnScJWyJ-315" value="&lt;span style=&quot;font-size: 23px;&quot;&gt;KEYWORD FILTER&lt;/span&gt;" style="rounded=0;whiteSpace=wrap;html=1;fillColor=none;" vertex="1" parent="WIyWlLk6GJQsqaUBKTNV-1">
          <mxGeometry x="-100" y="3303" width="320" height="60" as="geometry" />
        </mxCell>
        <mxCell id="cbNW1Q17LAViBnScJWyJ-329" style="edgeStyle=orthogonalEdgeStyle;rounded=0;orthogonalLoop=1;jettySize=auto;html=1;endArrow=open;endFill=0;" edge="1" parent="WIyWlLk6GJQsqaUBKTNV-1" source="cbNW1Q17LAViBnScJWyJ-316" target="cbNW1Q17LAViBnScJWyJ-282">
          <mxGeometry relative="1" as="geometry" />
        </mxCell>
        <mxCell id="cbNW1Q17LAViBnScJWyJ-332" style="edgeStyle=orthogonalEdgeStyle;rounded=0;orthogonalLoop=1;jettySize=auto;html=1;startArrow=open;startFill=0;endArrow=open;endFill=0;" edge="1" parent="WIyWlLk6GJQsqaUBKTNV-1" source="cbNW1Q17LAViBnScJWyJ-316" target="cbNW1Q17LAViBnScJWyJ-117">
          <mxGeometry relative="1" as="geometry" />
        </mxCell>
        <mxCell id="cbNW1Q17LAViBnScJWyJ-316" value="KeywordFilter" style="swimlane;fontStyle=2;align=center;verticalAlign=top;childLayout=stackLayout;horizontal=1;startSize=26;horizontalStack=0;resizeParent=1;resizeLast=0;collapsible=1;marginBottom=0;rounded=0;shadow=0;strokeWidth=1;" vertex="1" parent="WIyWlLk6GJQsqaUBKTNV-1">
          <mxGeometry x="-110" y="3456" width="220" height="112" as="geometry">
            <mxRectangle x="190" y="630" width="160" height="26" as="alternateBounds" />
          </mxGeometry>
        </mxCell>
        <mxCell id="cbNW1Q17LAViBnScJWyJ-317" value="Â " style="text;align=left;verticalAlign=top;spacingLeft=4;spacingRight=4;overflow=hidden;rotatable=0;points=[[0,0.5],[1,0.5]];portConstraint=eastwest;rounded=0;shadow=0;html=0;fontStyle=4" vertex="1" parent="cbNW1Q17LAViBnScJWyJ-316">
          <mxGeometry y="26" width="220" height="26" as="geometry" />
        </mxCell>
        <mxCell id="cbNW1Q17LAViBnScJWyJ-320" value="" style="line;html=1;strokeWidth=1;align=left;verticalAlign=middle;spacingTop=-1;spacingLeft=3;spacingRight=3;rotatable=0;labelPosition=right;points=[];portConstraint=eastwest;" vertex="1" parent="cbNW1Q17LAViBnScJWyJ-316">
          <mxGeometry y="52" width="220" height="8" as="geometry" />
        </mxCell>
        <mxCell id="cbNW1Q17LAViBnScJWyJ-321" value="- tokenizer() : String[]" style="text;align=left;verticalAlign=top;spacingLeft=4;spacingRight=4;overflow=hidden;rotatable=0;points=[[0,0.5],[1,0.5]];portConstraint=eastwest;fontStyle=0" vertex="1" parent="cbNW1Q17LAViBnScJWyJ-316">
          <mxGeometry y="60" width="220" height="26" as="geometry" />
        </mxCell>
        <mxCell id="cbNW1Q17LAViBnScJWyJ-328" value="- keywordMatch() : void" style="text;align=left;verticalAlign=top;spacingLeft=4;spacingRight=4;overflow=hidden;rotatable=0;points=[[0,0.5],[1,0.5]];portConstraint=eastwest;fontStyle=0" vertex="1" parent="cbNW1Q17LAViBnScJWyJ-316">
          <mxGeometry y="86" width="220" height="26" as="geometry" />
        </mxCell>
        <mxCell id="cbNW1Q17LAViBnScJWyJ-394" style="edgeStyle=orthogonalEdgeStyle;rounded=0;orthogonalLoop=1;jettySize=auto;html=1;entryX=1;entryY=0.5;entryDx=0;entryDy=0;exitX=0;exitY=0.5;exitDx=0;exitDy=0;startArrow=open;startFill=0;endArrow=open;endFill=0;" edge="1" parent="WIyWlLk6GJQsqaUBKTNV-1" source="cbNW1Q17LAViBnScJWyJ-345" target="cbNW1Q17LAViBnScJWyJ-236">
          <mxGeometry relative="1" as="geometry">
            <Array as="points">
              <mxPoint x="230" y="1379" />
              <mxPoint x="230" y="2083" />
            </Array>
          </mxGeometry>
        </mxCell>
        <mxCell id="cbNW1Q17LAViBnScJWyJ-335" value="BlacklistActivity" style="swimlane;fontStyle=2;align=center;verticalAlign=top;childLayout=stackLayout;horizontal=1;startSize=26;horizontalStack=0;resizeParent=1;resizeLast=0;collapsible=1;marginBottom=0;rounded=0;shadow=0;strokeWidth=1;" vertex="1" parent="WIyWlLk6GJQsqaUBKTNV-1">
          <mxGeometry x="420" y="1228" width="240" height="302" as="geometry">
            <mxRectangle x="190" y="630" width="160" height="26" as="alternateBounds" />
          </mxGeometry>
        </mxCell>
        <mxCell id="cbNW1Q17LAViBnScJWyJ-336" value="Â " style="text;align=left;verticalAlign=top;spacingLeft=4;spacingRight=4;overflow=hidden;rotatable=0;points=[[0,0.5],[1,0.5]];portConstraint=eastwest;rounded=0;shadow=0;html=0;" vertex="1" parent="cbNW1Q17LAViBnScJWyJ-335">
          <mxGeometry y="26" width="240" height="26" as="geometry" />
        </mxCell>
        <mxCell id="cbNW1Q17LAViBnScJWyJ-337" value="" style="line;html=1;strokeWidth=1;align=left;verticalAlign=middle;spacingTop=-1;spacingLeft=3;spacingRight=3;rotatable=0;labelPosition=right;points=[];portConstraint=eastwest;" vertex="1" parent="cbNW1Q17LAViBnScJWyJ-335">
          <mxGeometry y="52" width="240" height="8" as="geometry" />
        </mxCell>
        <mxCell id="cbNW1Q17LAViBnScJWyJ-338" value="numberInput() : void" style="text;align=left;verticalAlign=top;spacingLeft=4;spacingRight=4;overflow=hidden;rotatable=0;points=[[0,0.5],[1,0.5]];portConstraint=eastwest;fontStyle=0" vertex="1" parent="cbNW1Q17LAViBnScJWyJ-335">
          <mxGeometry y="60" width="240" height="26" as="geometry" />
        </mxCell>
        <mxCell id="cbNW1Q17LAViBnScJWyJ-343" value="blacklistDisplay(): void" style="text;align=left;verticalAlign=top;spacingLeft=4;spacingRight=4;overflow=hidden;rotatable=0;points=[[0,0.5],[1,0.5]];portConstraint=eastwest;fontStyle=0" vertex="1" parent="cbNW1Q17LAViBnScJWyJ-335">
          <mxGeometry y="86" width="240" height="26" as="geometry" />
        </mxCell>
        <mxCell id="cbNW1Q17LAViBnScJWyJ-344" value="numberInput() : void" style="text;align=left;verticalAlign=top;spacingLeft=4;spacingRight=4;overflow=hidden;rotatable=0;points=[[0,0.5],[1,0.5]];portConstraint=eastwest;fontStyle=0" vertex="1" parent="cbNW1Q17LAViBnScJWyJ-335">
          <mxGeometry y="112" width="240" height="26" as="geometry" />
        </mxCell>
        <mxCell id="cbNW1Q17LAViBnScJWyJ-345" value="addButton() : void" style="text;align=left;verticalAlign=top;spacingLeft=4;spacingRight=4;overflow=hidden;rotatable=0;points=[[0,0.5],[1,0.5]];portConstraint=eastwest;fontStyle=0" vertex="1" parent="cbNW1Q17LAViBnScJWyJ-335">
          <mxGeometry y="138" width="240" height="26" as="geometry" />
        </mxCell>
        <mxCell id="cbNW1Q17LAViBnScJWyJ-362" value="removeButton() : void" style="text;align=left;verticalAlign=top;spacingLeft=4;spacingRight=4;overflow=hidden;rotatable=0;points=[[0,0.5],[1,0.5]];portConstraint=eastwest;fontStyle=0" vertex="1" parent="cbNW1Q17LAViBnScJWyJ-335">
          <mxGeometry y="164" width="240" height="26" as="geometry" />
        </mxCell>
        <mxCell id="cbNW1Q17LAViBnScJWyJ-347" value="activity_blacklist.xml" style="swimlane;fontStyle=2;align=center;verticalAlign=top;childLayout=stackLayout;horizontal=1;startSize=26;horizontalStack=0;resizeParent=1;resizeLast=0;collapsible=1;marginBottom=0;rounded=0;shadow=0;strokeWidth=1;" vertex="1" parent="WIyWlLk6GJQsqaUBKTNV-1">
          <mxGeometry x="770" y="1340" width="220" height="60" as="geometry">
            <mxRectangle x="190" y="630" width="160" height="26" as="alternateBounds" />
          </mxGeometry>
        </mxCell>
        <mxCell id="cbNW1Q17LAViBnScJWyJ-348" value="XML formatting document" style="text;align=center;verticalAlign=top;spacingLeft=4;spacingRight=4;overflow=hidden;rotatable=0;points=[[0,0.5],[1,0.5]];portConstraint=eastwest;" vertex="1" parent="cbNW1Q17LAViBnScJWyJ-347">
          <mxGeometry y="26" width="220" height="26" as="geometry" />
        </mxCell>
        <mxCell id="cbNW1Q17LAViBnScJWyJ-350" style="edgeStyle=orthogonalEdgeStyle;rounded=0;orthogonalLoop=1;jettySize=auto;html=1;startArrow=open;startFill=0;endArrow=open;endFill=0;" edge="1" parent="WIyWlLk6GJQsqaUBKTNV-1" source="cbNW1Q17LAViBnScJWyJ-348" target="cbNW1Q17LAViBnScJWyJ-335">
          <mxGeometry relative="1" as="geometry" />
        </mxCell>
        <mxCell id="cbNW1Q17LAViBnScJWyJ-393" style="edgeStyle=orthogonalEdgeStyle;rounded=0;orthogonalLoop=1;jettySize=auto;html=1;entryX=1;entryY=0.5;entryDx=0;entryDy=0;exitX=0;exitY=0.75;exitDx=0;exitDy=0;startArrow=open;startFill=0;endArrow=open;endFill=0;" edge="1" parent="WIyWlLk6GJQsqaUBKTNV-1" source="cbNW1Q17LAViBnScJWyJ-352" target="cbNW1Q17LAViBnScJWyJ-303">
          <mxGeometry relative="1" as="geometry" />
        </mxCell>
        <mxCell id="cbNW1Q17LAViBnScJWyJ-352" value="WhitelistActivity" style="swimlane;fontStyle=2;align=center;verticalAlign=top;childLayout=stackLayout;horizontal=1;startSize=26;horizontalStack=0;resizeParent=1;resizeLast=0;collapsible=1;marginBottom=0;rounded=0;shadow=0;strokeWidth=1;" vertex="1" parent="WIyWlLk6GJQsqaUBKTNV-1">
          <mxGeometry x="420" y="1580" width="240" height="302" as="geometry">
            <mxRectangle x="190" y="630" width="160" height="26" as="alternateBounds" />
          </mxGeometry>
        </mxCell>
        <mxCell id="cbNW1Q17LAViBnScJWyJ-353" value="Â " style="text;align=left;verticalAlign=top;spacingLeft=4;spacingRight=4;overflow=hidden;rotatable=0;points=[[0,0.5],[1,0.5]];portConstraint=eastwest;rounded=0;shadow=0;html=0;" vertex="1" parent="cbNW1Q17LAViBnScJWyJ-352">
          <mxGeometry y="26" width="240" height="26" as="geometry" />
        </mxCell>
        <mxCell id="cbNW1Q17LAViBnScJWyJ-354" value="" style="line;html=1;strokeWidth=1;align=left;verticalAlign=middle;spacingTop=-1;spacingLeft=3;spacingRight=3;rotatable=0;labelPosition=right;points=[];portConstraint=eastwest;" vertex="1" parent="cbNW1Q17LAViBnScJWyJ-352">
          <mxGeometry y="52" width="240" height="8" as="geometry" />
        </mxCell>
        <mxCell id="cbNW1Q17LAViBnScJWyJ-355" value="numberInput() : void" style="text;align=left;verticalAlign=top;spacingLeft=4;spacingRight=4;overflow=hidden;rotatable=0;points=[[0,0.5],[1,0.5]];portConstraint=eastwest;fontStyle=0" vertex="1" parent="cbNW1Q17LAViBnScJWyJ-352">
          <mxGeometry y="60" width="240" height="26" as="geometry" />
        </mxCell>
        <mxCell id="cbNW1Q17LAViBnScJWyJ-356" value="whitelistDisplay(): void" style="text;align=left;verticalAlign=top;spacingLeft=4;spacingRight=4;overflow=hidden;rotatable=0;points=[[0,0.5],[1,0.5]];portConstraint=eastwest;fontStyle=0" vertex="1" parent="cbNW1Q17LAViBnScJWyJ-352">
          <mxGeometry y="86" width="240" height="26" as="geometry" />
        </mxCell>
        <mxCell id="cbNW1Q17LAViBnScJWyJ-357" value="numberInput() : void" style="text;align=left;verticalAlign=top;spacingLeft=4;spacingRight=4;overflow=hidden;rotatable=0;points=[[0,0.5],[1,0.5]];portConstraint=eastwest;fontStyle=0" vertex="1" parent="cbNW1Q17LAViBnScJWyJ-352">
          <mxGeometry y="112" width="240" height="26" as="geometry" />
        </mxCell>
        <mxCell id="cbNW1Q17LAViBnScJWyJ-358" value="addButton() : void" style="text;align=left;verticalAlign=top;spacingLeft=4;spacingRight=4;overflow=hidden;rotatable=0;points=[[0,0.5],[1,0.5]];portConstraint=eastwest;fontStyle=0" vertex="1" parent="cbNW1Q17LAViBnScJWyJ-352">
          <mxGeometry y="138" width="240" height="26" as="geometry" />
        </mxCell>
        <mxCell id="cbNW1Q17LAViBnScJWyJ-363" value="removeButton() : void" style="text;align=left;verticalAlign=top;spacingLeft=4;spacingRight=4;overflow=hidden;rotatable=0;points=[[0,0.5],[1,0.5]];portConstraint=eastwest;fontStyle=0" vertex="1" parent="cbNW1Q17LAViBnScJWyJ-352">
          <mxGeometry y="164" width="240" height="26" as="geometry" />
        </mxCell>
        <mxCell id="cbNW1Q17LAViBnScJWyJ-359" value="activity_whitelist.xml" style="swimlane;fontStyle=2;align=center;verticalAlign=top;childLayout=stackLayout;horizontal=1;startSize=26;horizontalStack=0;resizeParent=1;resizeLast=0;collapsible=1;marginBottom=0;rounded=0;shadow=0;strokeWidth=1;" vertex="1" parent="WIyWlLk6GJQsqaUBKTNV-1">
          <mxGeometry x="770" y="1692" width="220" height="60" as="geometry">
            <mxRectangle x="190" y="630" width="160" height="26" as="alternateBounds" />
          </mxGeometry>
        </mxCell>
        <mxCell id="cbNW1Q17LAViBnScJWyJ-360" value="XML formatting document" style="text;align=center;verticalAlign=top;spacingLeft=4;spacingRight=4;overflow=hidden;rotatable=0;points=[[0,0.5],[1,0.5]];portConstraint=eastwest;" vertex="1" parent="cbNW1Q17LAViBnScJWyJ-359">
          <mxGeometry y="26" width="220" height="26" as="geometry" />
        </mxCell>
        <mxCell id="cbNW1Q17LAViBnScJWyJ-361" style="edgeStyle=orthogonalEdgeStyle;rounded=0;orthogonalLoop=1;jettySize=auto;html=1;startArrow=open;startFill=0;endArrow=open;endFill=0;" edge="1" parent="WIyWlLk6GJQsqaUBKTNV-1" source="cbNW1Q17LAViBnScJWyJ-360" target="cbNW1Q17LAViBnScJWyJ-352">
          <mxGeometry relative="1" as="geometry" />
        </mxCell>
        <mxCell id="cbNW1Q17LAViBnScJWyJ-392" style="edgeStyle=orthogonalEdgeStyle;rounded=0;orthogonalLoop=1;jettySize=auto;html=1;startArrow=open;startFill=0;endArrow=open;endFill=0;" edge="1" parent="WIyWlLk6GJQsqaUBKTNV-1" source="cbNW1Q17LAViBnScJWyJ-364" target="cbNW1Q17LAViBnScJWyJ-231">
          <mxGeometry relative="1" as="geometry">
            <Array as="points">
              <mxPoint x="350" y="2091" />
              <mxPoint x="350" y="2280" />
            </Array>
          </mxGeometry>
        </mxCell>
        <mxCell id="cbNW1Q17LAViBnScJWyJ-364" value="EvalBoxActivity" style="swimlane;fontStyle=2;align=center;verticalAlign=top;childLayout=stackLayout;horizontal=1;startSize=26;horizontalStack=0;resizeParent=1;resizeLast=0;collapsible=1;marginBottom=0;rounded=0;shadow=0;strokeWidth=1;" vertex="1" parent="WIyWlLk6GJQsqaUBKTNV-1">
          <mxGeometry x="420" y="1940" width="240" height="302" as="geometry">
            <mxRectangle x="190" y="630" width="160" height="26" as="alternateBounds" />
          </mxGeometry>
        </mxCell>
        <mxCell id="cbNW1Q17LAViBnScJWyJ-365" value="Â " style="text;align=left;verticalAlign=top;spacingLeft=4;spacingRight=4;overflow=hidden;rotatable=0;points=[[0,0.5],[1,0.5]];portConstraint=eastwest;rounded=0;shadow=0;html=0;" vertex="1" parent="cbNW1Q17LAViBnScJWyJ-364">
          <mxGeometry y="26" width="240" height="26" as="geometry" />
        </mxCell>
        <mxCell id="cbNW1Q17LAViBnScJWyJ-366" value="" style="line;html=1;strokeWidth=1;align=left;verticalAlign=middle;spacingTop=-1;spacingLeft=3;spacingRight=3;rotatable=0;labelPosition=right;points=[];portConstraint=eastwest;" vertex="1" parent="cbNW1Q17LAViBnScJWyJ-364">
          <mxGeometry y="52" width="240" height="8" as="geometry" />
        </mxCell>
        <mxCell id="cbNW1Q17LAViBnScJWyJ-368" value="messageDisplay(): void" style="text;align=left;verticalAlign=top;spacingLeft=4;spacingRight=4;overflow=hidden;rotatable=0;points=[[0,0.5],[1,0.5]];portConstraint=eastwest;fontStyle=0" vertex="1" parent="cbNW1Q17LAViBnScJWyJ-364">
          <mxGeometry y="60" width="240" height="26" as="geometry" />
        </mxCell>
        <mxCell id="cbNW1Q17LAViBnScJWyJ-370" value="blacklistNumber() : void" style="text;align=left;verticalAlign=top;spacingLeft=4;spacingRight=4;overflow=hidden;rotatable=0;points=[[0,0.5],[1,0.5]];portConstraint=eastwest;fontStyle=0" vertex="1" parent="cbNW1Q17LAViBnScJWyJ-364">
          <mxGeometry y="86" width="240" height="26" as="geometry" />
        </mxCell>
        <mxCell id="cbNW1Q17LAViBnScJWyJ-371" value="WhitelistNumber() : void" style="text;align=left;verticalAlign=top;spacingLeft=4;spacingRight=4;overflow=hidden;rotatable=0;points=[[0,0.5],[1,0.5]];portConstraint=eastwest;fontStyle=0" vertex="1" parent="cbNW1Q17LAViBnScJWyJ-364">
          <mxGeometry y="112" width="240" height="26" as="geometry" />
        </mxCell>
        <mxCell id="cbNW1Q17LAViBnScJWyJ-375" value="ignoreMessage() : void" style="text;align=left;verticalAlign=top;spacingLeft=4;spacingRight=4;overflow=hidden;rotatable=0;points=[[0,0.5],[1,0.5]];portConstraint=eastwest;fontStyle=0" vertex="1" parent="cbNW1Q17LAViBnScJWyJ-364">
          <mxGeometry y="138" width="240" height="26" as="geometry" />
        </mxCell>
        <mxCell id="cbNW1Q17LAViBnScJWyJ-372" value="activity_evalbox.xml" style="swimlane;fontStyle=2;align=center;verticalAlign=top;childLayout=stackLayout;horizontal=1;startSize=26;horizontalStack=0;resizeParent=1;resizeLast=0;collapsible=1;marginBottom=0;rounded=0;shadow=0;strokeWidth=1;" vertex="1" parent="WIyWlLk6GJQsqaUBKTNV-1">
          <mxGeometry x="764" y="2052" width="220" height="60" as="geometry">
            <mxRectangle x="190" y="630" width="160" height="26" as="alternateBounds" />
          </mxGeometry>
        </mxCell>
        <mxCell id="cbNW1Q17LAViBnScJWyJ-373" value="XML formatting document" style="text;align=center;verticalAlign=top;spacingLeft=4;spacingRight=4;overflow=hidden;rotatable=0;points=[[0,0.5],[1,0.5]];portConstraint=eastwest;" vertex="1" parent="cbNW1Q17LAViBnScJWyJ-372">
          <mxGeometry y="26" width="220" height="26" as="geometry" />
        </mxCell>
        <mxCell id="cbNW1Q17LAViBnScJWyJ-374" style="edgeStyle=orthogonalEdgeStyle;rounded=0;orthogonalLoop=1;jettySize=auto;html=1;startArrow=open;startFill=0;endArrow=open;endFill=0;" edge="1" parent="WIyWlLk6GJQsqaUBKTNV-1" source="cbNW1Q17LAViBnScJWyJ-373" target="cbNW1Q17LAViBnScJWyJ-364">
          <mxGeometry relative="1" as="geometry" />
        </mxCell>
        <mxCell id="cbNW1Q17LAViBnScJWyJ-391" style="edgeStyle=orthogonalEdgeStyle;rounded=0;orthogonalLoop=1;jettySize=auto;html=1;entryX=0.75;entryY=1;entryDx=0;entryDy=0;startArrow=open;startFill=0;endArrow=open;endFill=0;" edge="1" parent="WIyWlLk6GJQsqaUBKTNV-1" source="cbNW1Q17LAViBnScJWyJ-376" target="cbNW1Q17LAViBnScJWyJ-231">
          <mxGeometry relative="1" as="geometry" />
        </mxCell>
        <mxCell id="cbNW1Q17LAViBnScJWyJ-376" value="KeywordActivity" style="swimlane;fontStyle=2;align=center;verticalAlign=top;childLayout=stackLayout;horizontal=1;startSize=26;horizontalStack=0;resizeParent=1;resizeLast=0;collapsible=1;marginBottom=0;rounded=0;shadow=0;strokeWidth=1;" vertex="1" parent="WIyWlLk6GJQsqaUBKTNV-1">
          <mxGeometry x="420" y="2300" width="240" height="302" as="geometry">
            <mxRectangle x="190" y="630" width="160" height="26" as="alternateBounds" />
          </mxGeometry>
        </mxCell>
        <mxCell id="cbNW1Q17LAViBnScJWyJ-377" value="Â " style="text;align=left;verticalAlign=top;spacingLeft=4;spacingRight=4;overflow=hidden;rotatable=0;points=[[0,0.5],[1,0.5]];portConstraint=eastwest;rounded=0;shadow=0;html=0;" vertex="1" parent="cbNW1Q17LAViBnScJWyJ-376">
          <mxGeometry y="26" width="240" height="26" as="geometry" />
        </mxCell>
        <mxCell id="cbNW1Q17LAViBnScJWyJ-378" value="" style="line;html=1;strokeWidth=1;align=left;verticalAlign=middle;spacingTop=-1;spacingLeft=3;spacingRight=3;rotatable=0;labelPosition=right;points=[];portConstraint=eastwest;" vertex="1" parent="cbNW1Q17LAViBnScJWyJ-376">
          <mxGeometry y="52" width="240" height="8" as="geometry" />
        </mxCell>
        <mxCell id="cbNW1Q17LAViBnScJWyJ-379" value="keywordDisplay(): void" style="text;align=left;verticalAlign=top;spacingLeft=4;spacingRight=4;overflow=hidden;rotatable=0;points=[[0,0.5],[1,0.5]];portConstraint=eastwest;fontStyle=0" vertex="1" parent="cbNW1Q17LAViBnScJWyJ-376">
          <mxGeometry y="60" width="240" height="26" as="geometry" />
        </mxCell>
        <mxCell id="cbNW1Q17LAViBnScJWyJ-386" value="addKeyword(): void" style="text;align=left;verticalAlign=top;spacingLeft=4;spacingRight=4;overflow=hidden;rotatable=0;points=[[0,0.5],[1,0.5]];portConstraint=eastwest;fontStyle=0" vertex="1" parent="cbNW1Q17LAViBnScJWyJ-376">
          <mxGeometry y="86" width="240" height="26" as="geometry" />
        </mxCell>
        <mxCell id="cbNW1Q17LAViBnScJWyJ-387" value="removeKeyword(): void" style="text;align=left;verticalAlign=top;spacingLeft=4;spacingRight=4;overflow=hidden;rotatable=0;points=[[0,0.5],[1,0.5]];portConstraint=eastwest;fontStyle=0" vertex="1" parent="cbNW1Q17LAViBnScJWyJ-376">
          <mxGeometry y="112" width="240" height="26" as="geometry" />
        </mxCell>
        <mxCell id="cbNW1Q17LAViBnScJWyJ-383" value="activity_keyword.xml" style="swimlane;fontStyle=2;align=center;verticalAlign=top;childLayout=stackLayout;horizontal=1;startSize=26;horizontalStack=0;resizeParent=1;resizeLast=0;collapsible=1;marginBottom=0;rounded=0;shadow=0;strokeWidth=1;" vertex="1" parent="WIyWlLk6GJQsqaUBKTNV-1">
          <mxGeometry x="764" y="2412" width="220" height="60" as="geometry">
            <mxRectangle x="190" y="630" width="160" height="26" as="alternateBounds" />
          </mxGeometry>
        </mxCell>
        <mxCell id="cbNW1Q17LAViBnScJWyJ-384" value="XML formatting document" style="text;align=center;verticalAlign=top;spacingLeft=4;spacingRight=4;overflow=hidden;rotatable=0;points=[[0,0.5],[1,0.5]];portConstraint=eastwest;" vertex="1" parent="cbNW1Q17LAViBnScJWyJ-383">
          <mxGeometry y="26" width="220" height="26" as="geometry" />
        </mxCell>
        <mxCell id="cbNW1Q17LAViBnScJWyJ-385" style="edgeStyle=orthogonalEdgeStyle;rounded=0;orthogonalLoop=1;jettySize=auto;html=1;startArrow=open;startFill=0;endArrow=open;endFill=0;" edge="1" parent="WIyWlLk6GJQsqaUBKTNV-1" source="cbNW1Q17LAViBnScJWyJ-384" target="cbNW1Q17LAViBnScJWyJ-376">
          <mxGeometry relative="1" as="geometry" />
        </mxCell>
        <mxCell id="cbNW1Q17LAViBnScJWyJ-395" value="" style="rounded=0;whiteSpace=wrap;html=1;opacity=20;fillColor=#dae8fc;strokeColor=#6c8ebf;" vertex="1" parent="WIyWlLk6GJQsqaUBKTNV-1">
          <mxGeometry x="-1530" y="2810" width="1800" height="1030" as="geometry" />
        </mxCell>
        <mxCell id="cbNW1Q17LAViBnScJWyJ-397" value="" style="rounded=0;whiteSpace=wrap;html=1;fillColor=#60a917;fontColor=#ffffff;strokeColor=#2D7600;opacity=20;" vertex="1" parent="WIyWlLk6GJQsqaUBKTNV-1">
          <mxGeometry x="-450" y="1190" width="1570" height="1460" as="geometry" />
        </mxCell>
        <mxCell id="cbNW1Q17LAViBnScJWyJ-399" value="" style="rounded=0;whiteSpace=wrap;html=1;fillColor=#ffcccc;strokeColor=#36393d;opacity=20;" vertex="1" parent="WIyWlLk6GJQsqaUBKTNV-1">
          <mxGeometry x="1590" y="1850" width="1560" height="910" as="geometry" />
        </mxCell>
      </root>
    </mxGraphModel>
  </diagram>
</mxfile>
